<svg id="Calque_2" data-name="Calque 2" xmlns="http://www.w3.org/2000/svg" viewBox="0 0 1080 1080"><defs><style>.cls-1{fill:#e28633;}</style></defs><path class="cls-1" d="M701.46,636.6c-136.89-36.81-269.77.12-313.76,14.85a16,16,0,0,0-10,20.44L390.38,708a8.46,8.46,0,0,0,10.52,5.27c128-40.27,266.57-26.59,266.57-26.59,0,7.06,1.64,18.82,11.76,17.5l13.53-1.53c7-1.43,11.06-3.06,12-8.77l6.91-41.44A14,14,0,0,0,701.46,636.6ZM412.6,701.47S424.5,697,429,697.2C429,697.2,416.86,701.24,412.6,701.47Zm193.17-74.88s27.77.38,39.33,4.63Z"/></svg>